<?xml version="1.0" encoding="UTF-8" standalone="no"?><!DOCTYPE svg PUBLIC "-//W3C//DTD SVG 1.1//EN" "http://www.w3.org/Graphics/SVG/1.1/DTD/svg11.dtd"><svg xmlns="http://www.w3.org/2000/svg" xmlns:xlink="http://www.w3.org/1999/xlink" version="1.1" width="600" height="600" viewBox="0 0 600 600" xml:space="preserve">
<desc>Created with Fabric.js 4.0.0-beta.8</desc>
<defs>
</defs>
<g transform="matrix(1 0 0 1 300.5 300.5)">
<rect style="stroke: none; stroke-width: 1; stroke-dasharray: none; stroke-linecap: butt; stroke-dashoffset: 0; stroke-linejoin: miter; stroke-miterlimit: 4; fill: rgb(255,255,255); fill-opacity: 0; fill-rule: nonzero; opacity: 1;" x="-300" y="-300" rx="0" ry="0" width="600" height="600"/>
</g>
<g transform="matrix(0.53 0 0 0.53 60 60)">
<circle style="stroke: none; stroke-width: 1; stroke-dasharray: none; stroke-linecap: butt; stroke-dashoffset: 0; stroke-linejoin: miter; stroke-miterlimit: 4; fill: #ff657a; fill-rule: nonzero; opacity: 1;" cx="0" cy="0" r="16"/>
</g>
<g transform="matrix(0.53 0 0 0.53 60 140)">
<circle style="stroke: none; stroke-width: 1; stroke-dasharray: none; stroke-linecap: butt; stroke-dashoffset: 0; stroke-linejoin: miter; stroke-miterlimit: 4; fill: #ff657a; fill-rule: nonzero; opacity: 1;" cx="0" cy="0" r="16"/>
</g>
<g transform="matrix(0.53 0 0 0.53 60 220)">
<circle style="stroke: none; stroke-width: 1; stroke-dasharray: none; stroke-linecap: butt; stroke-dashoffset: 0; stroke-linejoin: miter; stroke-miterlimit: 4; fill: #ff657a; fill-rule: nonzero; opacity: 1;" cx="0" cy="0" r="16"/>
</g>
<g transform="matrix(0.53 0 0 0.53 60 300)">
<circle style="stroke: none; stroke-width: 1; stroke-dasharray: none; stroke-linecap: butt; stroke-dashoffset: 0; stroke-linejoin: miter; stroke-miterlimit: 4; fill: #ff657a; fill-rule: nonzero; opacity: 1;" cx="0" cy="0" r="16"/>
</g>
<g transform="matrix(0.53 0 0 0.53 60 380)">
<circle style="stroke: none; stroke-width: 1; stroke-dasharray: none; stroke-linecap: butt; stroke-dashoffset: 0; stroke-linejoin: miter; stroke-miterlimit: 4; fill: #ff657a; fill-rule: nonzero; opacity: 1;" cx="0" cy="0" r="16"/>
</g>
<g transform="matrix(0.53 0 0 0.53 60 460)">
<circle style="stroke: none; stroke-width: 1; stroke-dasharray: none; stroke-linecap: butt; stroke-dashoffset: 0; stroke-linejoin: miter; stroke-miterlimit: 4; fill: #ff657a; fill-rule: nonzero; opacity: 1;" cx="0" cy="0" r="16"/>
</g>
<g transform="matrix(0.53 0 0 0.53 60 540)">
<circle style="stroke: none; stroke-width: 1; stroke-dasharray: none; stroke-linecap: butt; stroke-dashoffset: 0; stroke-linejoin: miter; stroke-miterlimit: 4; fill: #ff657a; fill-rule: nonzero; opacity: 1;" cx="0" cy="0" r="16"/>
</g>
<g transform="matrix(0.53 0 0 0.53 140 60)">
<circle style="stroke: none; stroke-width: 1; stroke-dasharray: none; stroke-linecap: butt; stroke-dashoffset: 0; stroke-linejoin: miter; stroke-miterlimit: 4; fill: #ff657a; fill-rule: nonzero; opacity: 1;" cx="0" cy="0" r="16"/>
</g>
<g transform="matrix(0.53 0 0 0.53 140 140)">
<circle style="stroke: none; stroke-width: 1; stroke-dasharray: none; stroke-linecap: butt; stroke-dashoffset: 0; stroke-linejoin: miter; stroke-miterlimit: 4; fill: #ff657a; fill-rule: nonzero; opacity: 1;" cx="0" cy="0" r="16"/>
</g>
<g transform="matrix(0.53 0 0 0.53 140 220)">
<circle style="stroke: none; stroke-width: 1; stroke-dasharray: none; stroke-linecap: butt; stroke-dashoffset: 0; stroke-linejoin: miter; stroke-miterlimit: 4; fill: #ff657a; fill-rule: nonzero; opacity: 1;" cx="0" cy="0" r="16"/>
</g>
<g transform="matrix(0.53 0 0 0.53 140 300)">
<circle style="stroke: none; stroke-width: 1; stroke-dasharray: none; stroke-linecap: butt; stroke-dashoffset: 0; stroke-linejoin: miter; stroke-miterlimit: 4; fill: #ff657a; fill-rule: nonzero; opacity: 1;" cx="0" cy="0" r="16"/>
</g>
<g transform="matrix(0.53 0 0 0.53 140 380)">
<circle style="stroke: none; stroke-width: 1; stroke-dasharray: none; stroke-linecap: butt; stroke-dashoffset: 0; stroke-linejoin: miter; stroke-miterlimit: 4; fill: #ff657a; fill-rule: nonzero; opacity: 1;" cx="0" cy="0" r="16"/>
</g>
<g transform="matrix(0.53 0 0 0.53 140 460)">
<circle style="stroke: none; stroke-width: 1; stroke-dasharray: none; stroke-linecap: butt; stroke-dashoffset: 0; stroke-linejoin: miter; stroke-miterlimit: 4; fill: #ff657a; fill-rule: nonzero; opacity: 1;" cx="0" cy="0" r="16"/>
</g>
<g transform="matrix(0.53 0 0 0.53 140 540)">
<circle style="stroke: none; stroke-width: 1; stroke-dasharray: none; stroke-linecap: butt; stroke-dashoffset: 0; stroke-linejoin: miter; stroke-miterlimit: 4; fill: #ff657a; fill-rule: nonzero; opacity: 1;" cx="0" cy="0" r="16"/>
</g>
<g transform="matrix(0.53 0 0 0.53 220 60)">
<circle style="stroke: none; stroke-width: 1; stroke-dasharray: none; stroke-linecap: butt; stroke-dashoffset: 0; stroke-linejoin: miter; stroke-miterlimit: 4; fill: #ff657a; fill-rule: nonzero; opacity: 1;" cx="0" cy="0" r="16"/>
</g>
<g transform="matrix(0.53 0 0 0.53 220 140)">
<circle style="stroke: none; stroke-width: 1; stroke-dasharray: none; stroke-linecap: butt; stroke-dashoffset: 0; stroke-linejoin: miter; stroke-miterlimit: 4; fill: #ff657a; fill-rule: nonzero; opacity: 1;" cx="0" cy="0" r="16"/>
</g>
<g transform="matrix(0.53 0 0 0.53 220 220)">
<circle style="stroke: none; stroke-width: 1; stroke-dasharray: none; stroke-linecap: butt; stroke-dashoffset: 0; stroke-linejoin: miter; stroke-miterlimit: 4; fill: #ff657a; fill-rule: nonzero; opacity: 1;" cx="0" cy="0" r="16"/>
</g>
<g transform="matrix(0.53 0 0 0.53 220 300)">
<circle style="stroke: none; stroke-width: 1; stroke-dasharray: none; stroke-linecap: butt; stroke-dashoffset: 0; stroke-linejoin: miter; stroke-miterlimit: 4; fill: #ff657a; fill-rule: nonzero; opacity: 1;" cx="0" cy="0" r="16"/>
</g>
<g transform="matrix(0.53 0 0 0.53 220 380)">
<circle style="stroke: none; stroke-width: 1; stroke-dasharray: none; stroke-linecap: butt; stroke-dashoffset: 0; stroke-linejoin: miter; stroke-miterlimit: 4; fill: #ff657a; fill-rule: nonzero; opacity: 1;" cx="0" cy="0" r="16"/>
</g>
<g transform="matrix(0.53 0 0 0.53 220 460)">
<circle style="stroke: none; stroke-width: 1; stroke-dasharray: none; stroke-linecap: butt; stroke-dashoffset: 0; stroke-linejoin: miter; stroke-miterlimit: 4; fill: #ff657a; fill-rule: nonzero; opacity: 1;" cx="0" cy="0" r="16"/>
</g>
<g transform="matrix(0.53 0 0 0.53 220 540)">
<circle style="stroke: none; stroke-width: 1; stroke-dasharray: none; stroke-linecap: butt; stroke-dashoffset: 0; stroke-linejoin: miter; stroke-miterlimit: 4; fill: #ff657a; fill-rule: nonzero; opacity: 1;" cx="0" cy="0" r="16"/>
</g>
<g transform="matrix(0.53 0 0 0.53 300 60)">
<circle style="stroke: none; stroke-width: 1; stroke-dasharray: none; stroke-linecap: butt; stroke-dashoffset: 0; stroke-linejoin: miter; stroke-miterlimit: 4; fill: #ff657a; fill-rule: nonzero; opacity: 1;" cx="0" cy="0" r="16"/>
</g>
<g transform="matrix(0.53 0 0 0.53 300 140)">
<circle style="stroke: none; stroke-width: 1; stroke-dasharray: none; stroke-linecap: butt; stroke-dashoffset: 0; stroke-linejoin: miter; stroke-miterlimit: 4; fill: #ff657a; fill-rule: nonzero; opacity: 1;" cx="0" cy="0" r="16"/>
</g>
<g transform="matrix(0.53 0 0 0.53 300 220)">
<circle style="stroke: none; stroke-width: 1; stroke-dasharray: none; stroke-linecap: butt; stroke-dashoffset: 0; stroke-linejoin: miter; stroke-miterlimit: 4; fill: #ff657a; fill-rule: nonzero; opacity: 1;" cx="0" cy="0" r="16"/>
</g>
<g transform="matrix(0.53 0 0 0.53 300 300)">
<circle style="stroke: none; stroke-width: 1; stroke-dasharray: none; stroke-linecap: butt; stroke-dashoffset: 0; stroke-linejoin: miter; stroke-miterlimit: 4; fill: #ff657a; fill-rule: nonzero; opacity: 1;" cx="0" cy="0" r="16"/>
</g>
<g transform="matrix(0.53 0 0 0.53 300 380)">
<circle style="stroke: none; stroke-width: 1; stroke-dasharray: none; stroke-linecap: butt; stroke-dashoffset: 0; stroke-linejoin: miter; stroke-miterlimit: 4; fill: #ff657a; fill-rule: nonzero; opacity: 1;" cx="0" cy="0" r="16"/>
</g>
<g transform="matrix(0.53 0 0 0.53 300 460)">
<circle style="stroke: none; stroke-width: 1; stroke-dasharray: none; stroke-linecap: butt; stroke-dashoffset: 0; stroke-linejoin: miter; stroke-miterlimit: 4; fill: #ff657a; fill-rule: nonzero; opacity: 1;" cx="0" cy="0" r="16"/>
</g>
<g transform="matrix(0.53 0 0 0.53 300 540)">
<circle style="stroke: none; stroke-width: 1; stroke-dasharray: none; stroke-linecap: butt; stroke-dashoffset: 0; stroke-linejoin: miter; stroke-miterlimit: 4; fill: #ff657a; fill-rule: nonzero; opacity: 1;" cx="0" cy="0" r="16"/>
</g>
<g transform="matrix(0.53 0 0 0.53 380 60)">
<circle style="stroke: none; stroke-width: 1; stroke-dasharray: none; stroke-linecap: butt; stroke-dashoffset: 0; stroke-linejoin: miter; stroke-miterlimit: 4; fill: #ff657a; fill-rule: nonzero; opacity: 1;" cx="0" cy="0" r="16"/>
</g>
<g transform="matrix(0.53 0 0 0.53 380 140)">
<circle style="stroke: none; stroke-width: 1; stroke-dasharray: none; stroke-linecap: butt; stroke-dashoffset: 0; stroke-linejoin: miter; stroke-miterlimit: 4; fill: #ff657a; fill-rule: nonzero; opacity: 1;" cx="0" cy="0" r="16"/>
</g>
<g transform="matrix(0.53 0 0 0.53 380 220)">
<circle style="stroke: none; stroke-width: 1; stroke-dasharray: none; stroke-linecap: butt; stroke-dashoffset: 0; stroke-linejoin: miter; stroke-miterlimit: 4; fill: #ff657a; fill-rule: nonzero; opacity: 1;" cx="0" cy="0" r="16"/>
</g>
<g transform="matrix(0.53 0 0 0.53 380 300)">
<circle style="stroke: none; stroke-width: 1; stroke-dasharray: none; stroke-linecap: butt; stroke-dashoffset: 0; stroke-linejoin: miter; stroke-miterlimit: 4; fill: #ff657a; fill-rule: nonzero; opacity: 1;" cx="0" cy="0" r="16"/>
</g>
<g transform="matrix(0.53 0 0 0.53 380 380)">
<circle style="stroke: none; stroke-width: 1; stroke-dasharray: none; stroke-linecap: butt; stroke-dashoffset: 0; stroke-linejoin: miter; stroke-miterlimit: 4; fill: #ff657a; fill-rule: nonzero; opacity: 1;" cx="0" cy="0" r="16"/>
</g>
<g transform="matrix(0.53 0 0 0.53 380 460)">
<circle style="stroke: none; stroke-width: 1; stroke-dasharray: none; stroke-linecap: butt; stroke-dashoffset: 0; stroke-linejoin: miter; stroke-miterlimit: 4; fill: #ff657a; fill-rule: nonzero; opacity: 1;" cx="0" cy="0" r="16"/>
</g>
<g transform="matrix(0.53 0 0 0.53 380 540)">
<circle style="stroke: none; stroke-width: 1; stroke-dasharray: none; stroke-linecap: butt; stroke-dashoffset: 0; stroke-linejoin: miter; stroke-miterlimit: 4; fill: #ff657a; fill-rule: nonzero; opacity: 1;" cx="0" cy="0" r="16"/>
</g>
<g transform="matrix(0.53 0 0 0.53 460 60)">
<circle style="stroke: none; stroke-width: 1; stroke-dasharray: none; stroke-linecap: butt; stroke-dashoffset: 0; stroke-linejoin: miter; stroke-miterlimit: 4; fill: #ff657a; fill-rule: nonzero; opacity: 1;" cx="0" cy="0" r="16"/>
</g>
<g transform="matrix(0.53 0 0 0.53 460 140)">
<circle style="stroke: none; stroke-width: 1; stroke-dasharray: none; stroke-linecap: butt; stroke-dashoffset: 0; stroke-linejoin: miter; stroke-miterlimit: 4; fill: #ff657a; fill-rule: nonzero; opacity: 1;" cx="0" cy="0" r="16"/>
</g>
<g transform="matrix(0.53 0 0 0.53 460 220)">
<circle style="stroke: none; stroke-width: 1; stroke-dasharray: none; stroke-linecap: butt; stroke-dashoffset: 0; stroke-linejoin: miter; stroke-miterlimit: 4; fill: #ff657a; fill-rule: nonzero; opacity: 1;" cx="0" cy="0" r="16"/>
</g>
<g transform="matrix(0.53 0 0 0.53 460 300)">
<circle style="stroke: none; stroke-width: 1; stroke-dasharray: none; stroke-linecap: butt; stroke-dashoffset: 0; stroke-linejoin: miter; stroke-miterlimit: 4; fill: #ff657a; fill-rule: nonzero; opacity: 1;" cx="0" cy="0" r="16"/>
</g>
<g transform="matrix(0.53 0 0 0.53 460 380)">
<circle style="stroke: none; stroke-width: 1; stroke-dasharray: none; stroke-linecap: butt; stroke-dashoffset: 0; stroke-linejoin: miter; stroke-miterlimit: 4; fill: #ff657a; fill-rule: nonzero; opacity: 1;" cx="0" cy="0" r="16"/>
</g>
<g transform="matrix(0.53 0 0 0.53 460 460)">
<circle style="stroke: none; stroke-width: 1; stroke-dasharray: none; stroke-linecap: butt; stroke-dashoffset: 0; stroke-linejoin: miter; stroke-miterlimit: 4; fill: #ff657a; fill-rule: nonzero; opacity: 1;" cx="0" cy="0" r="16"/>
</g>
<g transform="matrix(0.53 0 0 0.53 460 540)">
<circle style="stroke: none; stroke-width: 1; stroke-dasharray: none; stroke-linecap: butt; stroke-dashoffset: 0; stroke-linejoin: miter; stroke-miterlimit: 4; fill: #ff657a; fill-rule: nonzero; opacity: 1;" cx="0" cy="0" r="16"/>
</g>
<g transform="matrix(0.53 0 0 0.53 540 60)">
<circle style="stroke: none; stroke-width: 1; stroke-dasharray: none; stroke-linecap: butt; stroke-dashoffset: 0; stroke-linejoin: miter; stroke-miterlimit: 4; fill: #ff657a; fill-rule: nonzero; opacity: 1;" cx="0" cy="0" r="16"/>
</g>
<g transform="matrix(0.53 0 0 0.53 540 140)">
<circle style="stroke: none; stroke-width: 1; stroke-dasharray: none; stroke-linecap: butt; stroke-dashoffset: 0; stroke-linejoin: miter; stroke-miterlimit: 4; fill: #ff657a; fill-rule: nonzero; opacity: 1;" cx="0" cy="0" r="16"/>
</g>
<g transform="matrix(0.53 0 0 0.53 540 220)">
<circle style="stroke: none; stroke-width: 1; stroke-dasharray: none; stroke-linecap: butt; stroke-dashoffset: 0; stroke-linejoin: miter; stroke-miterlimit: 4; fill: #ff657a; fill-rule: nonzero; opacity: 1;" cx="0" cy="0" r="16"/>
</g>
<g transform="matrix(0.53 0 0 0.53 540 300)">
<circle style="stroke: none; stroke-width: 1; stroke-dasharray: none; stroke-linecap: butt; stroke-dashoffset: 0; stroke-linejoin: miter; stroke-miterlimit: 4; fill: #ff657a; fill-rule: nonzero; opacity: 1;" cx="0" cy="0" r="16"/>
</g>
<g transform="matrix(0.53 0 0 0.53 540 380)">
<circle style="stroke: none; stroke-width: 1; stroke-dasharray: none; stroke-linecap: butt; stroke-dashoffset: 0; stroke-linejoin: miter; stroke-miterlimit: 4; fill: #ff657a; fill-rule: nonzero; opacity: 1;" cx="0" cy="0" r="16"/>
</g>
<g transform="matrix(0.53 0 0 0.53 540 460)">
<circle style="stroke: none; stroke-width: 1; stroke-dasharray: none; stroke-linecap: butt; stroke-dashoffset: 0; stroke-linejoin: miter; stroke-miterlimit: 4; fill: #ff657a; fill-rule: nonzero; opacity: 1;" cx="0" cy="0" r="16"/>
</g>
<g transform="matrix(0.53 0 0 0.53 540 540)">
<circle style="stroke: none; stroke-width: 1; stroke-dasharray: none; stroke-linecap: butt; stroke-dashoffset: 0; stroke-linejoin: miter; stroke-miterlimit: 4; fill: #ff657a; fill-rule: nonzero; opacity: 1;" cx="0" cy="0" r="16"/>
</g>
</svg>