<?xml version="1.0" standalone="no"?>
<!DOCTYPE svg PUBLIC "-//W3C//DTD SVG 20010904//EN"
 "http://www.w3.org/TR/2001/REC-SVG-20010904/DTD/svg10.dtd">
<svg version="1.0" xmlns="http://www.w3.org/2000/svg"
 width="263.000000pt" height="263.000000pt" viewBox="0 0 263.000000 263.000000"
 preserveAspectRatio="xMidYMid meet">
<metadata>
Created by potrace 1.11, written by Peter Selinger 2001-2013
</metadata>
<g transform="translate(0.000000,263.000000) scale(0.100000,-0.100000)"
fill="#000000" stroke="none">
<path d="M1159 2496 c-2 -3 -38 -12 -78 -20 -41 -9 -83 -22 -95 -31 -12 -8
-45 -31 -74 -50 -125 -83 -362 -361 -362 -425 0 -14 -7 -37 -14 -52 -8 -16
-11 -28 -5 -28 14 0 11 -19 -17 -89 l-26 -65 22 -80 c45 -164 70 -318 73 -446
2 -85 6 -101 34 -156 17 -33 43 -68 56 -77 27 -17 37 -51 43 -137 5 -78 14
-112 36 -133 16 -16 18 -28 13 -80 -8 -80 -21 -155 -33 -188 -13 -33 -89 -100
-158 -140 -30 -17 -56 -34 -59 -40 -4 -5 -27 -9 -53 -9 -26 -1 -65 -8 -87 -16
-22 -9 -64 -22 -93 -29 -30 -8 -62 -21 -71 -29 -10 -9 -22 -16 -27 -16 -6 0
-32 -14 -60 -32 -27 -18 -66 -40 -86 -50 -32 -14 -38 -22 -38 -48 l0 -30 485
0 c267 0 485 2 485 5 0 3 -28 18 -62 33 -35 16 -99 51 -143 79 -44 28 -115 66
-158 86 -42 20 -77 40 -77 45 0 5 14 12 31 16 33 6 99 -25 133 -63 17 -19 19
-19 52 -3 23 11 37 26 41 45 3 17 12 27 23 27 10 0 20 7 24 15 3 8 15 15 26
15 18 0 19 3 10 20 -8 16 -8 22 4 26 9 3 35 -14 67 -46 29 -28 65 -58 81 -66
26 -14 28 -13 28 6 0 11 2 20 4 20 12 0 117 -58 150 -84 31 -24 37 -26 28 -9
-15 28 -4 35 19 12 10 -10 29 -18 42 -18 22 2 22 2 0 6 -23 5 -41 35 -24 41
16 5 13 22 -3 22 -16 0 -41 28 -33 36 3 3 12 2 19 -2 15 -10 71 -12 78 -4 3 3
26 16 51 27 36 17 46 27 45 45 -1 16 5 24 20 26 12 2 24 11 27 21 2 9 31 34
63 56 32 21 70 47 83 59 29 26 101 131 101 147 0 6 8 18 18 25 16 12 16 14 -1
43 -11 18 -18 50 -18 78 1 27 1 65 1 87 0 21 4 44 10 51 6 7 13 36 17 64 3 28
10 54 14 57 5 3 9 24 9 47 0 33 -8 53 -40 95 -22 29 -40 59 -40 66 0 8 17 21
38 29 49 20 98 61 118 99 8 16 19 26 23 24 20 -13 37 -295 22 -376 -15 -83
-32 -143 -47 -161 -18 -20 -18 -30 0 -23 12 5 26 32 58 113 8 21 20 134 21
196 0 11 -3 60 -8 109 -7 81 -6 89 9 83 11 -5 27 4 47 24 26 26 30 37 25 63
-12 59 -27 241 -29 351 -2 100 -5 116 -34 176 -17 37 -48 86 -69 109 -23 26
-38 51 -36 62 2 11 -14 49 -36 86 -30 50 -63 86 -132 142 -107 88 -137 105
-222 125 -57 13 -268 21 -279 11z m478 -333 c84 -42 125 -86 163 -178 31 -73
34 -92 40 -220 3 -77 4 -143 3 -147 -2 -4 -26 8 -52 26 -32 23 -64 36 -95 39
-25 3 -50 8 -55 12 -6 3 -31 6 -56 7 -59 1 -81 -19 -90 -82 -7 -48 -7 -49 -33
-39 -14 5 -31 8 -38 5 -20 -8 -98 24 -129 53 -44 41 -78 49 -198 45 l-107 -3
-5 27 c-4 15 -14 58 -23 95 -13 54 -14 72 -4 85 7 9 17 28 22 41 8 18 13 21
24 12 11 -10 16 3 29 71 8 46 13 86 10 91 -17 28 107 67 214 67 45 0 95 7 118
15 63 24 191 13 262 -22z m138 -547 c57 -20 77 -51 78 -122 1 -110 -83 -204
-182 -204 -91 0 -182 112 -173 212 2 16 4 16 33 0 24 -13 33 -14 36 -4 3 7 23
12 53 12 40 0 49 3 53 21 3 12 10 18 17 14 6 -4 9 -13 6 -21 -4 -9 2 -14 16
-14 12 0 29 -7 39 -16 23 -21 51 -12 41 13 -18 46 -40 62 -105 79 -37 9 -65
19 -62 22 4 5 61 16 100 21 6 0 28 -6 50 -13z m-567 -31 c2 -2 -28 -6 -67 -10
-75 -7 -123 5 -61 16 30 5 119 1 128 -6z m698 -5 c9 0 12 -4 9 -10 -10 -17
-55 -12 -55 6 0 11 5 14 16 10 9 -3 22 -6 30 -6z m-659 -6 c-3 -3 -12 -4 -19
-1 -8 3 -5 6 6 6 11 1 17 -2 13 -5z m323 -44 c0 -5 -5 -10 -11 -10 -5 0 -7 5
-4 10 3 6 8 10 11 10 2 0 4 -4 4 -10z m-376 -35 c0 -26 -5 -31 -37 -38 -42
-10 -90 -2 -85 15 2 6 17 12 33 14 17 2 37 12 45 23 21 29 44 22 44 -14z m276
-40 c15 -38 41 -92 59 -120 17 -27 39 -62 49 -77 9 -16 21 -28 26 -28 23 0 76
-52 76 -75 0 -22 -3 -24 -32 -19 -18 3 -45 10 -60 16 -15 6 -49 7 -77 3 -48
-6 -51 -6 -61 19 -5 14 -16 26 -24 26 -8 0 -31 15 -50 34 -38 35 -40 66 -6 66
30 0 32 16 10 82 -13 41 -18 74 -14 97 9 50 12 53 46 49 28 -3 33 -9 58 -73z
m-700 41 c0 -3 -4 -8 -10 -11 -5 -3 -10 -1 -10 4 0 6 5 11 10 11 6 0 10 -2 10
-4z m476 -61 c-3 -9 3 -24 14 -35 19 -19 19 -23 5 -49 -45 -88 -163 -107 -241
-39 -29 26 -64 75 -64 91 0 12 34 16 46 6 26 -21 123 -5 243 40 2 0 1 -6 -3
-14z m710 -42 c-10 -10 -19 5 -10 18 6 11 8 11 12 0 2 -7 1 -15 -2 -18z m-930
-135 c-19 -5 -19 -6 -2 -7 34 -2 96 -24 96 -34 0 -6 -25 -37 -56 -69 l-56 -58
4 -60 c3 -64 -10 -76 -26 -23 -6 23 -4 40 8 63 16 32 15 33 -18 64 -44 41 -57
68 -56 114 1 47 -3 75 -12 82 -4 4 -1 15 7 26 13 20 16 19 73 -35 53 -51 57
-57 38 -63z m284 -3 c0 -19 -40 -26 -47 -8 -7 17 14 34 34 26 7 -3 13 -11 13
-18z m-670 -86 c0 -5 -4 -9 -10 -9 -5 0 -10 7 -10 16 0 8 5 12 10 9 6 -3 10
-10 10 -16z m510 -4 c-7 -8 -17 -15 -23 -15 -5 0 -2 9 8 20 21 23 35 19 15 -5z
m290 -101 c0 -8 -5 -12 -10 -9 -6 4 -8 11 -5 16 9 14 15 11 15 -7z m124 -52
c9 -18 11 -33 5 -43 -21 -33 -8 -38 40 -14 57 29 67 30 75 9 10 -26 7 -94 -5
-117 -7 -11 -11 -47 -10 -78 1 -32 -3 -60 -9 -64 -5 -3 -10 -15 -10 -26 0 -19
-12 -23 -58 -19 -16 1 -25 -5 -29 -19 -6 -23 -23 -27 -41 -9 -9 9 -12 9 -12
-3 0 -11 -11 -14 -42 -13 -24 0 -51 -3 -60 -8 -22 -11 -32 6 -18 32 8 15 8 20
-3 20 -7 0 -18 -5 -25 -12 -9 -9 -12 -8 -12 7 0 11 -7 29 -15 40 -13 17 -20
18 -55 8 -38 -10 -42 -9 -71 21 -75 76 -76 112 -2 49 59 -49 78 -56 94 -37 7
9 21 13 33 10 12 -3 25 2 32 12 13 16 13 16 14 0 0 -24 17 -23 30 2 6 11 20
20 30 20 22 0 27 25 8 33 -10 4 -9 8 2 16 8 6 13 11 10 11 -3 1 -21 2 -40 4
-40 3 -106 32 -113 49 -3 9 18 11 77 9 63 -3 88 0 114 14 36 19 42 34 12 34
-11 0 -20 -7 -20 -15 0 -8 -6 -15 -12 -16 -7 0 -31 -2 -53 -3 -22 -2 -49 3
-61 10 -11 8 -24 11 -27 8 -4 -4 -13 -1 -21 5 -10 8 -16 9 -21 1 -9 -15 -22
-12 -29 6 -9 24 3 37 21 23 12 -10 16 -10 24 2 5 8 9 17 9 22 0 4 7 7 15 7 9
0 12 -6 9 -17 -5 -15 -4 -15 4 -4 6 8 23 16 39 17 15 1 55 12 88 23 77 25 72
26 89 -7z m-134 -186 c0 -3 -4 -8 -10 -11 -5 -3 -10 -1 -10 4 0 6 5 11 10 11
6 0 10 -2 10 -4z"/>
<path d="M1567 1454 c35 -17 65 -24 90 -22 l38 3 -29 19 c-19 13 -50 21 -90
23 l-61 3 52 -26z"/>
<path d="M1518 1223 c-29 -7 -21 -25 10 -21 15 2 26 7 25 13 -2 12 -12 14 -35
8z"/>
<path d="M1747 886 c-4 -10 -5 -21 -2 -24 9 -9 17 6 13 25 -3 17 -4 17 -11 -1z"/>
<path d="M1770 880 c0 -5 5 -10 10 -10 6 0 10 5 10 10 0 6 -4 10 -10 10 -5 0
-10 -4 -10 -10z"/>
<path d="M1766 761 c-4 -7 -5 -15 -2 -18 9 -9 19 4 14 18 -4 11 -6 11 -12 0z"/>
<path d="M2052 450 c-40 -25 -72 -75 -72 -115 0 -23 13 -41 58 -85 32 -30 80
-66 106 -78 l47 -24 34 24 c43 29 57 62 56 133 0 69 -24 112 -79 143 -49 27
-107 28 -150 2z"/>
<path d="M31 166 c-16 -18 -5 -56 15 -56 8 0 31 11 50 24 l35 24 -28 6 c-15 4
-35 9 -44 12 -9 2 -22 -2 -28 -10z"/>
<path d="M1634 137 c-3 -8 2 -31 10 -52 9 -21 16 -48 16 -61 l0 -24 140 0 c87
0 140 4 140 10 0 6 -7 10 -16 10 -16 0 -128 53 -199 94 -57 34 -84 40 -91 23z"/>
<path d="M1280 131 c0 -15 42 -41 65 -41 18 0 17 3 -9 25 -30 25 -56 33 -56
16z"/>
</g>
</svg>
